<svg width="300" height="91" viewBox="0 0 300 91" fill="none" xmlns="http://www.w3.org/2000/svg">
<g clip-path="url(#clip0_153_524)">
<path d="M292.044 52.6303V47.5209H294.633C294.841 47.5209 295.067 47.5809 295.312 47.7009C295.556 47.8163 295.764 47.9963 295.935 48.2409C296.11 48.4809 296.198 48.7856 296.198 49.1548C296.198 49.5286 296.108 49.8471 295.928 50.1102C295.748 50.3687 295.529 50.5648 295.27 50.6987C295.016 50.8325 294.776 50.8994 294.55 50.8994H292.681V50.0687H294.204C294.356 50.0687 294.52 49.9925 294.696 49.8402C294.876 49.6879 294.966 49.4594 294.966 49.1548C294.966 48.8409 294.876 48.6286 294.696 48.5179C294.52 48.4071 294.366 48.3517 294.232 48.3517H293.166V52.6303H292.044ZM295.132 50.221L296.406 52.6303H295.173L293.927 50.221H295.132ZM293.983 55.6765C293.216 55.6765 292.499 55.5334 291.829 55.2472C291.16 54.9611 290.572 54.5641 290.064 54.0564C289.556 53.5487 289.159 52.9603 288.873 52.291C288.587 51.6218 288.444 50.9041 288.444 50.1379C288.444 49.3717 288.587 48.654 288.873 47.9848C289.159 47.3155 289.556 46.727 290.064 46.2193C290.572 45.7116 291.16 45.3147 291.829 45.0285C292.499 44.7424 293.216 44.5993 293.983 44.5993C294.749 44.5993 295.466 44.7424 296.136 45.0285C296.805 45.3147 297.393 45.7116 297.901 46.2193C298.409 46.727 298.806 47.3155 299.092 47.9848C299.378 48.654 299.521 49.3717 299.521 50.1379C299.521 50.9041 299.378 51.6218 299.092 52.291C298.806 52.9603 298.409 53.5487 297.901 54.0564C297.393 54.5641 296.805 54.9611 296.136 55.2472C295.466 55.5334 294.749 55.6765 293.983 55.6765ZM293.983 54.3472C294.758 54.3472 295.464 54.158 296.101 53.7795C296.738 53.401 297.246 52.8933 297.624 52.2564C298.003 51.6195 298.192 50.9133 298.192 50.1379C298.192 49.3625 298.003 48.6563 297.624 48.0194C297.246 47.3824 296.738 46.8747 296.101 46.4963C295.464 46.1178 294.758 45.9286 293.983 45.9286C293.207 45.9286 292.501 46.1178 291.864 46.4963C291.227 46.8747 290.719 47.3824 290.341 48.0194C289.963 48.6563 289.773 49.3625 289.773 50.1379C289.773 50.9133 289.963 51.6195 290.341 52.2564C290.719 52.8933 291.227 53.401 291.864 53.7795C292.501 54.158 293.207 54.3472 293.983 54.3472Z" fill="white"/>
<path d="M184.073 52.2594C184.073 54.044 184.109 54.2614 185.224 54.3827L185.698 54.4333C185.802 54.5192 185.771 54.8074 185.661 54.8579C184.667 54.8225 184.089 54.8074 183.385 54.8074C182.651 54.8074 182.021 54.8225 181.25 54.8579C181.146 54.8074 181.109 54.5344 181.214 54.4333L181.578 54.3827C182.594 54.2462 182.63 54.044 182.63 52.2594V45.9955C182.63 44.5547 182.594 44.2463 181.807 44.1806L181.177 44.1149C181.052 44.0138 181.073 43.7559 181.214 43.6902C182.141 43.5689 183.224 43.5537 184.677 43.5537C186.13 43.5537 187.214 43.7408 188.036 44.2312C188.844 44.7215 189.437 45.6063 189.437 46.7792C189.437 48.3413 188.437 49.1249 187.687 49.4788C186.917 49.8327 185.99 49.9894 185.276 49.9894C185.156 49.9389 185.156 49.6861 185.26 49.6507C187.151 49.312 187.833 48.2756 187.833 46.7994C187.833 45.1513 186.839 44.0845 185.016 44.0845C184.089 44.0845 184.073 44.1503 184.073 44.6963V52.2594Z" fill="white"/>
<path d="M193.995 46.1674C193.995 44.5547 193.943 44.2665 193.224 44.1806L192.667 44.1149C192.542 44.0289 192.542 43.7559 192.682 43.6902C193.661 43.6043 194.87 43.5537 196.583 43.5537C197.667 43.5537 198.698 43.6397 199.505 44.0643C200.344 44.489 200.958 45.2524 200.958 46.4404C200.958 48.0532 199.646 48.9379 198.771 49.2766C198.682 49.3777 198.771 49.5496 198.859 49.6861C200.26 51.8752 201.187 53.2351 202.375 54.2007C202.672 54.4535 203.109 54.6405 203.583 54.6759C203.672 54.7113 203.688 54.8428 203.604 54.9135C203.448 54.9641 203.167 54.9995 202.833 54.9995C201.344 54.9995 200.453 54.5748 199.214 52.861C198.76 52.2341 198.042 51.0612 197.5 50.2978C197.24 49.9237 196.958 49.7518 196.26 49.7518C195.474 49.7518 195.437 49.767 195.437 50.1259V52.2644C195.437 54.049 195.474 54.2513 196.49 54.3878L196.859 54.4383C196.964 54.5243 196.927 54.8124 196.823 54.863C196.036 54.8276 195.443 54.8124 194.74 54.8124C194.005 54.8124 193.375 54.8276 192.552 54.863C192.448 54.8124 192.411 54.5597 192.516 54.4383L192.953 54.3878C193.969 54.2664 194.005 54.049 194.005 52.2644V46.1674H193.995ZM195.427 48.5941C195.427 48.9025 195.427 49.0895 195.479 49.1553C195.531 49.2058 195.792 49.2412 196.688 49.2412C197.318 49.2412 197.979 49.1755 198.49 48.8014C198.964 48.4424 199.365 47.8509 199.365 46.6932C199.365 45.3535 198.505 44.0795 196.562 44.0795C195.479 44.0795 195.427 44.1452 195.427 44.6204V48.5941Z" fill="white"/>
<path d="M205.594 49.3221C205.594 45.9247 208.219 43.3262 211.823 43.3262C215.865 43.3262 217.896 46.1623 217.896 49.1502C217.896 52.5829 215.203 55.0753 211.823 55.0753C207.938 55.0803 205.594 52.3807 205.594 49.3221ZM216.146 49.681C216.146 46.8802 214.87 43.857 211.526 43.857C209.708 43.857 207.344 45.0602 207.344 48.7811C207.344 51.2937 208.604 54.5546 212.052 54.5546C214.151 54.5546 216.146 53.0278 216.146 49.681Z" fill="white"/>
<path d="M222.687 45.8084C222.687 44.6204 222.599 44.2614 221.865 44.1603L221.479 44.1098C221.339 44.0238 221.323 43.7508 221.5 43.6851C222.984 43.5991 224.401 43.5486 225.891 43.5486C227.359 43.5486 228.604 43.6497 229.74 44.0592C232.104 44.8883 233.292 46.8246 233.292 49.0693C233.292 51.2229 232.224 53.0783 230.229 54.1299C229.094 54.7264 227.656 54.9438 226.312 54.9438C225.193 54.9438 224.073 54.8073 223.458 54.8073C222.724 54.8073 222.094 54.8225 221.271 54.8579C221.167 54.8073 221.13 54.5343 221.234 54.4332L221.635 54.3826C222.651 54.2461 222.687 54.0439 222.687 52.2593V45.8084ZM224.12 51.87C224.12 52.7699 224.172 53.3159 224.469 53.7204C224.854 54.2461 225.521 54.418 226.62 54.418C230.016 54.418 231.536 52.2593 231.536 49.1046C231.536 47.2341 230.609 44.0794 226.026 44.0794C224.995 44.0794 224.432 44.2159 224.292 44.317C224.151 44.4181 224.115 44.8428 224.115 45.6062V51.87H224.12Z" fill="white"/>
<path d="M246.427 47.866C246.427 46.8145 246.391 44.858 246.094 44.3524C245.974 44.1502 245.656 44.0289 245.219 43.9935L244.781 43.9581C244.677 43.8418 244.714 43.6194 244.818 43.5486C245.484 43.584 246.13 43.5991 246.813 43.5991C247.547 43.5991 248.021 43.584 248.651 43.5486C248.792 43.6345 248.776 43.857 248.688 43.9581L248.266 43.9935C247.828 44.0289 247.479 44.1805 247.391 44.403C247.13 44.9641 247.146 46.9156 247.146 47.866V49.7871C247.146 51.2634 246.901 52.8255 245.922 53.8468C245.172 54.6455 243.875 55.0854 242.578 55.0854C241.37 55.0854 240.167 54.8629 239.307 54.1501C238.38 53.4019 237.943 52.1633 237.943 50.141V46.132C237.943 44.3676 237.906 44.0794 236.891 43.9935L236.453 43.9581C236.349 43.8924 236.385 43.5991 236.49 43.5486C237.365 43.584 237.958 43.5991 238.656 43.5991C239.375 43.5991 239.948 43.584 240.807 43.5486C240.911 43.5991 240.948 43.8873 240.844 43.9581L240.427 43.9935C239.411 44.0794 239.375 44.3676 239.375 46.132V49.7973C239.375 52.5323 240.25 54.3321 242.927 54.3321C245.464 54.3321 246.427 52.3958 246.427 49.8124V47.866Z" fill="white"/>
<path d="M253.615 44.7721C254.891 43.8064 256.521 43.3262 258.339 43.3262C259.281 43.3262 260.615 43.5132 261.432 43.7357C261.641 43.7862 261.766 43.8216 261.922 43.8014C261.938 44.1907 262.026 45.2625 262.167 46.2988C262.078 46.4202 261.818 46.4353 261.693 46.3342C261.432 45.1816 260.641 43.857 258.109 43.857C255.432 43.857 253.156 45.5051 253.156 49.0187C253.156 52.5829 255.484 54.5546 258.354 54.5546C260.609 54.5546 261.609 53.1289 262.01 52.1279C262.135 52.042 262.396 52.0773 262.464 52.1936C262.339 53.0783 261.885 54.1956 261.625 54.5192C261.411 54.5546 261.203 54.6203 261.01 54.6911C260.625 54.8276 259.365 55.0803 258.245 55.0803C256.672 55.0803 255.167 54.7719 253.891 53.9428C252.49 53.0076 251.406 51.4656 251.406 49.2715C251.411 47.3908 252.286 45.7731 253.615 44.7721Z" fill="white"/>
<path d="M271.005 52.2593C271.005 54.0439 271.042 54.2815 272.052 54.3826L272.615 54.4332C272.719 54.4989 272.682 54.8073 272.578 54.8578C271.583 54.8224 270.99 54.8073 270.286 54.8073C269.589 54.8073 268.974 54.8224 267.854 54.8578C267.75 54.8073 267.714 54.5191 267.854 54.4332L268.484 54.3826C269.484 54.2967 269.568 54.0439 269.568 52.2593V44.6709C269.568 44.1451 269.568 44.1249 269.047 44.1249H268.083C267.333 44.1249 266.37 44.1603 265.932 44.5495C265.516 44.9237 265.339 45.2978 265.146 45.7224C265.005 45.8235 264.76 45.7376 264.693 45.6062C264.974 44.8428 265.234 43.7558 265.359 43.0784C265.411 43.043 265.641 43.0278 265.693 43.0784C265.797 43.6193 266.375 43.6042 267.177 43.6042H274.26C275.203 43.6042 275.365 43.5688 275.625 43.1289C275.714 43.0935 275.906 43.1138 275.937 43.1795C275.745 43.8772 275.625 45.2523 275.677 45.7629C275.609 45.8994 275.312 45.8994 275.224 45.7983C275.172 45.3736 275.047 44.7467 274.786 44.5597C274.385 44.2715 273.719 44.135 272.755 44.135H271.51C270.984 44.135 271.005 44.1502 271.005 44.7113V52.2593Z" fill="white"/>
<path d="M281.781 55.0802C280.313 55.0802 279.385 54.6403 279.052 54.4533C278.844 54.0792 278.615 52.8759 278.578 52.0772C278.667 51.9558 278.927 51.9255 279 52.0266C279.26 52.8911 279.979 54.5544 282.01 54.5544C283.479 54.5544 284.198 53.6191 284.198 52.6029C284.198 51.8547 284.042 51.0256 282.766 50.2268L281.104 49.1753C280.229 48.6141 279.214 47.6485 279.214 46.2532C279.214 44.6404 280.51 43.3311 282.781 43.3311C283.323 43.3311 283.953 43.417 284.406 43.5535C284.635 43.6041 284.88 43.6546 285.016 43.6546C285.172 44.0641 285.333 45.0146 285.333 45.7274C285.26 45.8285 284.984 45.8791 284.896 45.7779C284.667 44.964 284.198 43.8568 282.516 43.8568C280.802 43.8568 280.432 44.9589 280.432 45.7426C280.432 46.7284 281.271 47.4261 281.922 47.8305L283.323 48.6798C284.427 49.3421 285.51 50.3279 285.51 51.9407C285.51 53.8062 284.057 55.0802 281.781 55.0802Z" fill="white"/>
<path d="M16.0937 31.5972C16.0937 32.0573 16.1458 32.0573 16.6719 32.0573H17.8594C18.5781 32.0573 19.1354 32.0219 19.3437 31.9561C19.5364 31.8904 19.6771 31.8045 19.7812 31.3596L19.9375 30.6821C20.026 30.581 20.3229 30.581 20.3906 30.6821C20.3906 31.0916 20.3229 31.7691 20.3229 32.396C20.3229 33.0077 20.3906 33.6548 20.3906 34.0441C20.3229 34.1452 20.0573 34.1452 19.9375 34.0441L19.7604 33.3818C19.6927 33.0734 19.5312 32.8358 19.1979 32.7347C18.9531 32.669 18.5156 32.6488 17.8489 32.6488H16.6614C16.1354 32.6488 16.0833 32.6639 16.0833 33.1088V35.4698C16.0833 37.2544 16.1198 37.5071 17.151 37.5931L17.7448 37.6436C17.8489 37.7094 17.8125 38.0178 17.7083 38.0683C16.6771 38.0329 16.0833 38.0178 15.3802 38.0178C14.6094 38.0178 14.0156 38.0329 13.1927 38.0683C13.0885 38.0178 13.0521 37.7448 13.1562 37.6436L13.5937 37.5931C14.6094 37.4718 14.6458 37.2544 14.6458 35.4698V29.3576C14.6458 27.573 14.6094 27.3354 13.5937 27.2191L13.3125 27.1837C13.2083 27.118 13.2448 26.8096 13.3489 26.759C14.0833 26.7944 14.6771 26.8096 15.3802 26.8096H18.5989C19.7187 26.8096 20.7344 26.8096 20.9583 26.759C20.9583 27.5376 20.9739 28.3566 21.0104 28.9986C20.9583 29.0998 20.7135 29.1503 20.5885 29.0492C20.4479 28.2858 20.2396 27.6741 19.3646 27.4365C18.9792 27.3505 18.401 27.3354 17.6667 27.3354H16.5989C16.0729 27.3354 16.0729 27.3708 16.0729 28.0128V31.5972H16.0937Z" fill="white"/>
<path d="M24.3854 32.5325C24.3854 29.1352 27.0104 26.5366 30.6146 26.5366C34.6562 26.5366 36.6875 29.3728 36.6875 32.3606C36.6875 35.7933 33.9948 38.2857 30.6146 38.2857C26.7292 38.2908 24.3854 35.5911 24.3854 32.5325ZM34.9323 32.8915C34.9323 30.0907 33.6562 27.0675 30.3125 27.0675C28.4948 27.0675 26.1302 28.2757 26.1302 31.9916C26.1302 34.5042 27.3906 37.765 30.8385 37.765C32.9427 37.765 34.9323 36.2332 34.9323 32.8915Z" fill="white"/>
<path d="M41.4792 29.3728C41.4792 27.76 41.4271 27.4719 40.7083 27.3859L40.1458 27.3202C40.026 27.2343 40.026 26.9613 40.1615 26.8955C41.1406 26.8096 42.349 26.759 44.0625 26.759C45.1458 26.759 46.1771 26.845 46.9844 27.2696C47.8229 27.6943 48.4375 28.4577 48.4375 29.6458C48.4375 31.2585 47.125 32.1432 46.25 32.4819C46.1615 32.583 46.25 32.7549 46.3385 32.8914C47.7396 35.0805 48.6667 36.4404 49.8542 37.406C50.151 37.6588 50.5885 37.8459 51.0625 37.8813C51.151 37.9166 51.1667 38.0531 51.0781 38.1189C50.9219 38.1694 50.6406 38.2048 50.3073 38.2048C48.8177 38.2048 47.9271 37.7801 46.6875 36.0663C46.2344 35.4394 45.5156 34.2665 44.974 33.5031C44.7135 33.129 44.4323 32.9571 43.7344 32.9571C42.9479 32.9571 42.9115 32.9723 42.9115 33.3313V35.4698C42.9115 37.2544 42.9479 37.4566 43.9635 37.5931L44.3333 37.6436C44.4375 37.7296 44.401 38.0178 44.2969 38.0683C43.5104 38.0329 42.9167 38.0178 42.2135 38.0178C41.4792 38.0178 40.849 38.0329 40.026 38.0683C39.9219 38.0178 39.8854 37.765 39.9896 37.6436L40.4271 37.5931C41.4427 37.4718 41.4792 37.2544 41.4792 35.4698V29.3728ZM42.9115 31.8045C42.9115 32.1078 42.9115 32.2949 42.9635 32.3656C43.0156 32.4162 43.276 32.4516 44.1719 32.4516C44.8021 32.4516 45.4687 32.3859 45.974 32.0118C46.4479 31.6528 46.849 31.0613 46.849 29.9036C46.849 28.5639 45.9896 27.2899 44.0521 27.2899C42.9687 27.2899 42.9167 27.3556 42.9167 27.8308V31.8045H42.9115Z" fill="white"/>
<path d="M54.5104 29.3576C54.5104 27.5932 54.474 27.3354 53.4427 27.2191L53.1615 27.1837C53.0573 27.118 53.0937 26.8096 53.1979 26.759C53.9479 26.7944 54.5417 26.8096 55.2604 26.8096H58.5469C59.6667 26.8096 60.6979 26.8096 60.9062 26.759C61.0104 27.0472 61.1146 28.2706 61.1875 29.0189C61.1198 29.12 60.8385 29.1554 60.75 29.0543C60.4896 28.2555 60.3281 27.664 59.4219 27.4415C59.0521 27.3556 58.4948 27.3404 57.724 27.3404H56.4635C55.9375 27.3404 55.9375 27.3758 55.9375 28.0179V31.4152C55.9375 31.8904 55.9896 31.8904 56.5156 31.8904H57.5312C58.2656 31.8904 58.8073 31.855 59.0208 31.7893C59.2292 31.7236 59.3542 31.6174 59.4427 31.1928L59.5833 30.4951C59.6719 30.394 59.9687 30.394 60.0365 30.5103C60.0365 30.9198 59.9687 31.582 59.9687 32.2241C59.9687 32.8358 60.0365 33.4829 60.0365 33.852C59.9687 33.9733 59.6667 33.9733 59.5833 33.8671L59.4271 33.2049C59.3594 32.9015 59.2344 32.6437 58.8854 32.5578C58.6406 32.492 58.2187 32.4718 57.5365 32.4718H56.5208C55.9948 32.4718 55.9427 32.487 55.9427 32.9319V35.3282C55.9427 36.2281 55.9948 36.8044 56.276 37.0926C56.4844 37.2948 56.8542 37.4819 58.3958 37.4819C59.7448 37.4819 60.25 37.4161 60.6354 37.2291C60.9531 37.0572 61.4219 36.4657 61.875 35.581C61.9948 35.495 62.2448 35.5456 62.3125 35.6973C62.1927 36.2888 61.7552 37.5981 61.526 38.0582C59.9531 38.0228 58.3958 38.0076 56.8385 38.0076H55.2656C54.5156 38.0076 53.9167 38.0228 52.8854 38.0582C52.7812 38.0076 52.7448 37.7346 52.849 37.6335L53.4271 37.583C54.4219 37.497 54.5104 37.2443 54.5104 35.4596V29.3576Z" fill="white"/>
<path d="M65.9896 28.6094C65.5885 27.6589 65.3229 27.3 64.5729 27.2191L64.2552 27.1837C64.1354 27.0826 64.151 26.845 64.2917 26.759C64.8021 26.7944 65.3594 26.8096 66.1094 26.8096C66.8802 26.8096 67.4896 26.7944 68.224 26.759C68.3438 26.8248 68.3802 27.0826 68.2604 27.1837L68 27.2191C67.3333 27.305 67.1927 27.4061 67.1771 27.5426C67.2135 27.7095 67.5104 28.6296 68.0521 29.9188C68.8542 31.8904 69.6615 33.8419 70.5365 35.7781C71.0781 34.6558 71.8333 32.9066 72.2135 32.0067C72.7396 30.854 73.5417 28.9329 73.8385 28.2049C73.9792 27.846 73.9948 27.6589 73.9948 27.5426C73.9948 27.4213 73.8177 27.2899 73.2083 27.2191L72.8906 27.1837C72.7708 27.0826 72.8021 26.8248 72.9271 26.759C73.4167 26.7944 74.0833 26.8096 74.7448 26.8096C75.3229 26.8096 75.8646 26.7944 76.4427 26.759C76.5625 26.8248 76.5625 27.0978 76.4792 27.1837L75.9531 27.2191C75.5312 27.2545 75.2708 27.4567 75.0417 27.8156C74.5521 28.6144 73.8698 29.9895 73.0833 31.7236L72.1406 33.8115C71.4427 35.3737 70.6198 37.3454 70.3229 38.2453C70.2708 38.2806 70.2031 38.2958 70.1302 38.2958C70.0417 38.2958 69.9531 38.2806 69.8698 38.2453C69.6771 37.5324 69.3802 36.6983 69.0677 35.9854L65.9896 28.6094Z" fill="white"/>
<path d="M80.0521 29.3576C80.0521 27.5932 80.0156 27.3354 78.9843 27.2191L78.7031 27.1837C78.5989 27.118 78.6354 26.8096 78.7396 26.759C79.4896 26.7944 80.0885 26.8096 80.8021 26.8096H84.0937C85.2135 26.8096 86.2448 26.8096 86.4531 26.759C86.5573 27.0472 86.6614 28.2706 86.7343 29.0189C86.6666 29.12 86.3854 29.1554 86.2969 29.0543C86.0364 28.2555 85.875 27.664 84.9687 27.4415C84.5989 27.3556 84.0416 27.3404 83.2708 27.3404H82.0104C81.4844 27.3404 81.4843 27.3758 81.4843 28.0179V31.4152C81.4843 31.8904 81.5364 31.8904 82.0625 31.8904H83.0781C83.8125 31.8904 84.3541 31.855 84.5625 31.7893C84.7708 31.7236 84.8958 31.6174 84.9843 31.1928L85.125 30.4951C85.2135 30.394 85.5104 30.394 85.5781 30.5103C85.5781 30.9198 85.5104 31.582 85.5104 32.2241C85.5104 32.8358 85.5781 33.4829 85.5781 33.852C85.5104 33.9733 85.2083 33.9733 85.125 33.8671L84.9687 33.2049C84.901 32.9015 84.776 32.6437 84.4271 32.5578C84.1823 32.492 83.7604 32.4718 83.0781 32.4718H82.0625C81.5364 32.4718 81.4843 32.487 81.4843 32.9319V35.3282C81.4843 36.2281 81.5364 36.8044 81.8177 37.0926C82.026 37.2948 82.3958 37.4819 83.9323 37.4819C85.2812 37.4819 85.7864 37.4161 86.1718 37.2291C86.4843 37.0572 86.9583 36.4657 87.4114 35.581C87.5312 35.495 87.7812 35.5456 87.8489 35.6973C87.7291 36.2888 87.2916 37.5981 87.0625 38.0582C85.4896 38.0228 83.9323 38.0076 82.375 38.0076H80.8021C80.0521 38.0076 79.4531 38.0228 78.4219 38.0582C78.3177 38.0076 78.2812 37.7346 78.3854 37.6335L78.9635 37.583C79.9583 37.497 80.0469 37.2443 80.0469 35.4596V29.3576H80.0521Z" fill="white"/>
<path d="M92.0208 29.3728C92.0208 27.76 91.9687 27.4719 91.25 27.3859L90.6875 27.3202C90.5677 27.2343 90.5677 26.9613 90.7031 26.8955C91.6823 26.8096 92.8906 26.759 94.6042 26.759C95.6875 26.759 96.7187 26.845 97.526 27.2696C98.3646 27.6943 98.9792 28.4577 98.9792 29.6458C98.9792 31.2585 97.6667 32.1432 96.7917 32.4819C96.7031 32.583 96.7917 32.7549 96.8802 32.8914C98.2812 35.0805 99.2083 36.4404 100.396 37.406C100.693 37.6588 101.13 37.8459 101.604 37.8813C101.693 37.9166 101.708 38.0531 101.62 38.1189C101.464 38.1694 101.182 38.2048 100.849 38.2048C99.3646 38.2048 98.4687 37.7801 97.2292 36.0663C96.776 35.4394 96.0573 34.2665 95.5156 33.5031C95.2552 33.129 94.974 32.9571 94.2708 32.9571C93.4844 32.9571 93.4479 32.9723 93.4479 33.3313V35.4698C93.4479 37.2544 93.4844 37.4566 94.5 37.5931L94.8646 37.6436C94.9687 37.7296 94.9323 38.0178 94.8281 38.0683C94.0417 38.0329 93.4479 38.0178 92.7448 38.0178C92.0104 38.0178 91.3802 38.0329 90.5573 38.0683C90.4531 38.0178 90.4167 37.765 90.5208 37.6436L90.9583 37.5931C91.974 37.4718 92.0104 37.2544 92.0104 35.4698V29.3728H92.0208ZM93.4531 31.8045C93.4531 32.1078 93.4531 32.2949 93.5052 32.3656C93.5573 32.4162 93.8229 32.4516 94.7135 32.4516C95.3437 32.4516 96.0104 32.3859 96.5156 32.0118C96.9896 31.6528 97.3906 31.0613 97.3906 29.9036C97.3906 28.5639 96.5312 27.2899 94.5937 27.2899C93.5104 27.2899 93.4583 27.3556 93.4583 27.8308V31.8045H93.4531Z" fill="white"/>
<path d="M54.7292 46.1571C54.7292 44.3725 54.6927 44.1046 53.5937 44.0186L53.1562 43.9833C53.0521 43.9125 53.0885 43.6091 53.1927 43.5586C54.1719 43.594 54.7656 43.6091 55.4687 43.6091C56.151 43.6091 56.7448 43.594 57.6198 43.5586C57.7239 43.6091 57.7604 43.9175 57.6562 43.9833L57.2344 44.0186C56.2031 44.1046 56.1667 44.3725 56.1667 46.1571V52.0671C56.1667 53.1389 56.2187 53.5787 56.5364 53.9023C56.7292 54.0893 57.0625 54.2915 58.4427 54.2915C59.9271 54.2915 60.2969 54.2258 60.5781 54.0691C60.9271 53.8669 61.3802 53.2551 61.7344 52.3856C61.8385 52.2996 62.1719 52.3704 62.1719 52.4867C62.1719 52.6738 61.6823 54.4028 61.4375 54.8628C60.5469 54.8274 58.8854 54.8123 57.0833 54.8123H55.4739C54.7396 54.8123 54.1771 54.8274 53.1979 54.8628C53.0937 54.8123 53.0573 54.5393 53.1614 54.4381L53.6875 54.3876C54.7031 54.2865 54.7396 54.0489 54.7396 52.2643V46.1571H54.7292Z" fill="white"/>
<path d="M66.1562 46.1875C66.1562 44.3877 66.1198 44.0995 65.0885 44.0136L64.651 43.9833C64.5469 43.9125 64.5833 43.6091 64.6875 43.5586C65.5625 43.594 66.1562 43.6091 66.8906 43.6091C67.5885 43.6091 68.1875 43.594 69.0573 43.5586C69.1615 43.6091 69.1979 43.9175 69.0937 43.9833L68.6562 44.0186C67.625 44.1046 67.5885 44.3928 67.5885 46.1925V52.239C67.5885 54.0388 67.625 54.2764 68.6562 54.3977L69.0937 54.4483C69.1979 54.514 69.1615 54.8224 69.0573 54.8729C68.1823 54.8375 67.5885 54.8224 66.8854 54.8224C66.151 54.8224 65.5573 54.8375 64.6823 54.8729C64.5781 54.8224 64.5417 54.5494 64.6458 54.4483L65.0833 54.3977C66.1146 54.2764 66.151 54.0388 66.151 52.239V46.1875H66.1562Z" fill="white"/>
<path d="M73.3281 45.4089C72.9271 44.4585 72.6615 44.0995 71.9115 44.0186L71.599 43.9833C71.474 43.8821 71.4948 43.6445 71.6354 43.5586C72.1406 43.594 72.7031 43.6091 73.4531 43.6091C74.224 43.6091 74.8333 43.594 75.5677 43.5586C75.6927 43.6243 75.724 43.8821 75.6042 43.9833L75.3437 44.0186C74.6771 44.1046 74.5365 44.2057 74.5208 44.3422C74.5573 44.509 74.8542 45.4291 75.3958 46.7183C76.1979 48.69 77.0052 50.6414 77.8802 52.5777C78.4219 51.4554 79.1771 49.7061 79.5625 48.8063C80.0885 47.6536 80.8906 45.7325 81.1875 45.0045C81.3281 44.6455 81.3437 44.4585 81.3437 44.3422C81.3437 44.2209 81.1667 44.0844 80.5573 44.0186L80.2448 43.9833C80.125 43.8821 80.1562 43.6243 80.2812 43.5586C80.7708 43.594 81.4375 43.6091 82.099 43.6091C82.6771 43.6091 83.2187 43.594 83.7969 43.5586C83.9167 43.6243 83.9167 43.8973 83.8333 43.9833L83.3073 44.0186C82.8854 44.054 82.625 44.2563 82.3958 44.6152C81.9062 45.414 81.224 46.7891 80.4375 48.5231L79.4948 50.6111C78.7969 52.1733 77.974 54.1449 77.6771 55.0448C77.625 55.0802 77.5521 55.0954 77.4844 55.0954C77.3958 55.0954 77.3073 55.0802 77.224 55.0448C77.0312 54.332 76.7344 53.4978 76.4219 52.785L73.3281 45.4089Z" fill="white"/>
<path d="M87.3958 46.1875C87.3958 44.3877 87.3594 44.0995 86.3281 44.0136L85.8906 43.9833C85.7864 43.9125 85.8229 43.6091 85.9271 43.5586C86.8021 43.594 87.3958 43.6091 88.1302 43.6091C88.8281 43.6091 89.4271 43.594 90.3021 43.5586C90.4062 43.6091 90.4427 43.9175 90.3385 43.9833L89.901 44.0186C88.8698 44.1046 88.8333 44.3928 88.8333 46.1925V52.239C88.8333 54.0388 88.8698 54.2764 89.901 54.3977L90.3385 54.4483C90.4427 54.514 90.4062 54.8224 90.3021 54.8729C89.4271 54.8375 88.8333 54.8224 88.1302 54.8224C87.3958 54.8224 86.8021 54.8375 85.9271 54.8729C85.8229 54.8224 85.7864 54.5494 85.8906 54.4483L86.3281 54.3977C87.3594 54.2764 87.3958 54.0388 87.3958 52.239V46.1875Z" fill="white"/>
<path d="M104.469 51.9306C104.469 52.4412 104.469 54.4584 104.521 54.9033C104.484 55.0044 104.38 55.0903 104.187 55.0903C103.979 54.8021 103.469 54.2056 101.948 52.5271L97.8906 48.0429C97.4167 47.5171 96.2292 46.1218 95.8594 45.7527H95.8229C95.7552 45.9549 95.7344 46.3493 95.7344 46.8548V50.5555C95.7344 51.3543 95.7708 53.5585 96.0469 54.0691C96.1719 54.2561 96.5 54.3573 96.9375 54.3926L97.4792 54.4432C97.5833 54.5797 97.5677 54.7819 97.4427 54.8679C96.6562 54.8325 96.0417 54.8173 95.3958 54.8173C94.6615 54.8173 94.1875 54.8325 93.5781 54.8679C93.4531 54.7819 93.4375 54.5443 93.5417 54.4432L94.0156 54.3926C94.4167 54.3573 94.6979 54.241 94.7865 54.0539C95.0312 53.4422 95.0156 51.3694 95.0156 50.5555V45.6465C95.0156 45.1713 95 44.8124 94.6302 44.4231C94.3854 44.1855 93.9635 44.0692 93.5469 44.0186L93.2552 43.9833C93.151 43.8821 93.151 43.6243 93.2917 43.5586C94.026 43.6091 94.9531 43.6091 95.2708 43.6091C95.5521 43.6091 95.849 43.594 96.0729 43.5586C96.4219 44.4231 98.5052 46.6678 99.0625 47.2946L100.76 49.145C101.948 50.4695 102.823 51.4048 103.646 52.2188H103.682C103.75 52.1328 103.75 51.8598 103.75 51.5059V47.871C103.75 47.0722 103.734 44.8629 103.401 44.3574C103.297 44.2057 103.016 44.1046 102.318 44.0186L102.021 43.9833C101.901 43.8821 101.917 43.6091 102.057 43.5586C102.859 43.594 103.458 43.6091 104.12 43.6091C104.87 43.6091 105.328 43.594 105.922 43.5586C106.062 43.6445 106.062 43.8821 105.958 43.9833L105.714 44.0186C105.156 44.1046 104.802 44.2411 104.734 44.3725C104.437 44.9843 104.474 47.0874 104.474 47.871V51.9306H104.469Z" fill="white"/>
<path d="M119.599 53.0832C119.599 53.7607 119.703 54.1702 120.021 54.2864C120.073 54.337 120.073 54.4381 120 54.4887C119.792 54.4887 119.474 54.5544 119.146 54.6403C118.219 54.8779 116.958 55.0802 116.016 55.0802C113.932 55.0802 112.026 54.519 110.677 53.1944C109.625 52.1732 109.068 50.8335 109.068 49.3421C109.068 47.8962 109.557 46.4352 110.641 45.3179C111.812 44.1298 113.547 43.3311 116.187 43.3311C117.182 43.3311 118.109 43.5181 118.411 43.5838C118.745 43.6496 119.286 43.7709 119.495 43.7355C119.495 44.2967 119.599 45.1814 119.755 46.1976C119.703 46.3341 119.385 46.3492 119.281 46.2481C118.792 44.4129 117.479 43.8366 115.693 43.8366C112.297 43.8366 110.812 46.1824 110.812 48.7304C110.812 51.9912 112.547 54.5544 116.062 54.5544C117.146 54.5544 117.792 54.3319 117.984 54.0438C118.073 53.9224 118.161 53.6191 118.161 53.0782V52.4007C118.161 50.9751 118.109 50.8739 117.026 50.7526L116.255 50.6667C116.115 50.6009 116.135 50.2926 116.255 50.242C116.76 50.2774 117.724 50.2926 118.755 50.2926C119.437 50.2926 120.031 50.2774 120.609 50.242C120.734 50.3077 120.75 50.5656 120.625 50.6667L120.344 50.7021C119.609 50.788 119.589 51.2632 119.589 52.1277V53.0832H119.599Z" fill="white"/>
<path d="M171.469 57.8304C171.365 57.8001 171.255 57.7495 171.167 57.5776C171.167 57.5776 171.12 57.7596 171.047 57.9062C170.885 57.9517 169.646 58.2955 169.245 58.4169C169.094 58.4067 168.802 58.3612 168.656 58.1843C168.656 58.1843 168.656 58.4876 168.583 58.6444C168.177 58.796 167.75 58.978 167.312 59.2005C167.292 59.2106 167.271 59.2207 167.25 59.2308C167.146 59.246 166.776 59.2763 166.568 59.0994C166.568 59.0994 166.63 59.4735 166.547 59.6201C166.13 59.8577 165.667 60.1408 165.177 60.4542C165.031 60.4745 164.729 60.4846 164.547 60.338C164.547 60.338 164.625 60.7171 164.542 60.8587C164.312 61.0053 164.083 61.162 163.844 61.3187L161.516 62.8961V62.9011C161.156 63.1489 160.797 63.3966 160.432 63.6494C160.276 63.6645 160.021 63.6645 159.849 63.528C159.849 63.528 159.927 63.9173 159.844 64.0538C159.667 64.1802 159.484 64.3015 159.307 64.4279L156.573 66.3136C156.417 66.3288 156.161 66.3237 156 66.1923C156 66.1923 156.073 66.5361 156.01 66.6928C155.589 66.9759 155.182 67.2489 154.792 67.5017C154.651 67.5219 154.339 67.5371 154.146 67.3905C154.146 67.3905 154.229 67.7899 154.135 67.9264C153.943 68.0477 153.76 68.164 153.583 68.2701C153.437 68.3611 153.292 68.442 153.151 68.528C153.062 68.5735 152.969 68.619 152.88 68.6594C152.724 68.6645 152.474 68.6493 152.318 68.5077C152.318 68.5077 152.354 68.7504 152.323 68.9223C151.729 69.1953 151.167 69.4177 150.646 69.5997C150.49 69.5795 150.271 69.5239 150.146 69.3773C150.146 69.3773 150.146 69.62 150.094 69.7817C147.703 70.5249 146.115 70.4137 145.151 70.3631C145.151 70.3631 149.396 71.9202 155.771 67.5219C161.359 63.6696 166.797 58.8769 172 57.8051C172 57.8102 171.63 57.8355 171.469 57.8304Z" fill="white"/>
<path d="M175.516 57.1934C175.193 57.1429 174.453 57.0064 173.411 56.9963C173.255 56.9407 172.891 56.7738 172.776 56.4907C172.776 56.4907 172.646 56.8749 172.49 57.0216C171.849 57.062 171.125 57.153 170.333 57.3299C170.151 57.2996 169.797 57.2187 169.63 56.9862C169.63 56.9862 169.599 57.3552 169.49 57.5423C168.969 57.6889 168.432 57.8709 167.865 58.0984C167.839 58.1085 167.807 58.1237 167.786 58.1338C167.656 58.1388 167.198 58.1439 166.958 57.9012C166.958 57.9012 166.995 58.3663 166.875 58.5382C166.333 58.791 165.74 59.0893 165.099 59.4229C164.917 59.428 164.547 59.4179 164.333 59.2207C164.333 59.2207 164.391 59.6909 164.276 59.8628C163.979 60.0246 163.677 60.1863 163.37 60.3582L160.339 62.067V62.0721C159.87 62.34 159.401 62.613 158.927 62.886C158.734 62.886 158.417 62.8607 158.224 62.6787C158.224 62.6787 158.281 63.1641 158.161 63.3258C157.927 63.4623 157.693 63.5938 157.464 63.7303L153.896 65.7778C153.698 65.7778 153.396 65.7474 153.208 65.5705C153.208 65.5705 153.26 66.0002 153.167 66.1873C152.615 66.4957 152.089 66.7889 151.578 67.0619C151.401 67.072 151.016 67.0619 150.797 66.8597C150.797 66.8597 150.859 67.3602 150.729 67.5169C150.484 67.6433 150.245 67.7697 150.01 67.8859C149.714 68.0376 149.427 68.1741 149.146 68.3005C148.958 68.2954 148.615 68.255 148.422 68.0578C148.422 68.0578 148.443 68.4421 148.359 68.6392C147.651 68.9223 147.016 69.1246 146.448 69.2712C146.339 69.2611 145.859 69.1953 145.656 68.9122C145.656 68.9122 145.625 69.2813 145.516 69.4734C143.651 69.7818 142.771 69.3824 142.771 69.3824C142.938 72.1528 145.219 72.2691 145.219 72.2691C151.141 73.3106 156.995 67.9264 163.531 62.9214C163.885 62.6484 164.38 62.2642 164.573 62.1327C171.458 57.0064 175.786 57.7192 175.786 57.7192C176.495 57.7496 176.276 57.3097 175.516 57.1934Z" fill="white"/>
<path d="M170.375 30.8793C169.453 31.1169 168.099 32.219 167.693 32.5779C167.281 32.9419 166.255 33.9328 166.255 33.9328C166.255 33.9328 166.198 33.771 166.214 33.6649C166.229 33.5587 166.344 33.3919 166.719 32.9773C167.089 32.5678 168.953 30.5304 169.229 30.2423C169.505 29.9541 170.75 28.9632 170.859 28.7307C170.969 28.4981 170.776 28.5335 170.437 28.5992C170.094 28.6599 169.526 28.8823 168.729 29.4081C167.927 29.9339 166.948 31.1017 166.948 31.1017L166.88 31.3393C166.88 31.3393 166.823 31.3039 166.599 31.5517C166.375 31.7994 165.62 32.7195 165.62 32.7195C165.62 32.7195 165.573 32.7296 165.531 32.6639C165.495 32.5982 165.5 32.4313 165.562 32.3302C165.625 32.2291 166.583 30.6619 166.76 30.3788C166.937 30.0957 168.031 28.3717 168.115 28.215C168.203 28.0583 168.63 27.3303 168.807 27.0775C168.984 26.8247 168.995 26.5315 168.505 26.7489C167.641 27.128 166.531 28.5689 166.151 29.1503C165.771 29.7317 164.953 31.1017 164.953 31.1017C164.953 31.1017 164.818 31.1624 164.755 31.1523C164.693 31.1472 164.635 30.8894 164.693 30.6973C164.75 30.5052 165.271 29.2362 165.484 28.493C165.698 27.7549 166.135 26.2585 166.167 25.94C166.193 25.6215 166.167 25.4648 165.979 25.5608C165.792 25.6569 165.161 26.3495 164.958 26.7843C164.76 27.219 164.115 28.8874 164.005 29.1351C163.891 29.3828 163.599 29.7873 163.599 29.7873C163.599 29.7873 163.661 29.2261 163.755 28.8722C163.849 28.5183 164.13 26.127 164.161 25.6518C164.193 25.1817 164.036 25.2828 163.943 25.3788C163.849 25.4749 163.302 26.2332 163.167 26.5568C163.026 26.8753 162.672 27.9875 162.599 28.2807C162.526 28.579 162.406 28.0734 162.401 27.8712C162.396 27.669 162.307 26.3394 162.26 26.1169C162.208 25.8945 162.057 25.9804 161.953 26.0613C161.844 26.1422 161.552 26.4557 161.427 26.6528C161.344 26.7944 161.255 27.305 161.141 27.9167C161.078 27.6134 161 27.2342 160.943 26.9258C160.828 26.3141 160.615 26.1877 160.37 26.3798C160.266 26.4607 160.083 26.673 159.906 26.85C159.87 26.8854 159.839 26.9208 159.802 26.9511C159.615 27.128 159.443 27.2342 159.385 27.0674C159.255 26.7185 159.021 26.7388 158.693 26.9865C158.365 27.2342 158 27.6134 157.781 27.2949C157.557 26.9764 157.042 27.7044 156.854 28.1543C156.667 28.6093 156.646 28.6295 156.339 28.493C156.031 28.3565 154.557 28.6548 151.167 31.6325C149.521 33.0734 148.672 34.2008 148.229 34.9894C149.187 38.2402 150.823 40.141 150.953 40.3989C151.094 40.6719 151.484 41.0157 151.375 41.1875C151.271 41.3594 150.844 40.9499 150.844 40.9499C148.339 38.8215 146.776 34.5951 146.266 33.043C146.089 32.6133 145.927 32.1684 145.812 31.7185C145.219 29.4182 142.911 28.3262 141.88 27.3555C141.135 26.6579 140.693 25.9653 140.5 25.6265C140.104 24.5093 139.661 23.2707 139.51 22.8359C139.219 22.0068 137.557 17.3 137.443 16.6277C137.328 15.9502 137.182 15.6115 136.943 16.5265C136.698 17.4416 137.089 20.1008 137.448 21.1979C137.807 22.2949 138.573 23.938 138.573 23.938C138.573 23.938 138.464 24.125 138.37 24.1705C138.281 24.2211 138.099 24.0644 137.88 23.8015C137.661 23.5386 135.714 20.4244 135.115 19.2768C134.516 18.1342 132.687 14.9593 132.339 14.3072C131.984 13.66 131.703 14.5347 131.833 15.9603C131.958 17.3809 133.328 19.6762 133.786 20.3839C134.245 21.0917 135.531 22.8662 135.531 22.8662C135.531 22.8662 135.266 22.9067 135.104 22.8612C134.943 22.8106 134.703 22.5932 134.156 21.9309C133.609 21.2687 130.901 17.9775 130.526 17.4922C130.146 17.0068 128.917 14.9037 128.583 14.6813C128.25 14.4538 128.255 14.7571 128.266 15.2778C128.276 15.7985 128.469 16.6984 129.089 18.023C129.703 19.3475 131.271 21.1069 131.271 21.1069L133.453 23.4982C133.453 23.4982 133.453 23.5689 133.339 23.6144C133.224 23.6549 132.964 23.5993 132.823 23.483C132.682 23.3667 130.474 21.5366 130.073 21.1928C129.677 20.849 127.266 18.7813 127.036 18.6145C126.812 18.4477 125.781 17.6135 125.432 17.2849C125.078 16.9563 124.625 16.8653 124.833 17.6438C125.198 19.0189 127.172 21.0462 127.984 21.7641C128.797 22.482 130.729 24.0543 130.729 24.0543C130.729 24.0543 130.786 24.2717 130.76 24.3576C130.729 24.4486 130.318 24.4688 130.031 24.3323C129.745 24.1958 127.885 23.0887 126.781 22.578C125.672 22.0674 123.443 21.0209 122.948 20.8945C122.453 20.7682 122.198 20.7682 122.307 21.0715C122.411 21.3748 123.323 22.4921 123.953 22.9067C124.583 23.3212 127.036 24.7064 127.391 24.939C127.75 25.1715 128.312 25.7125 128.312 25.7125C128.312 25.7125 127.448 25.4749 126.917 25.2373C126.38 24.9997 122.698 23.9532 121.964 23.7813C121.229 23.6094 121.349 23.8672 121.479 24.029C121.604 24.1908 122.651 25.2019 123.12 25.49C123.583 25.7782 125.229 26.5972 125.677 26.7843C126.125 26.9663 125.297 27.0118 124.979 26.9663C124.661 26.9208 122.547 26.6983 122.187 26.7135C121.823 26.7287 121.922 26.9764 122.016 27.1533C122.109 27.3303 122.526 27.851 122.807 28.0886C123.089 28.3212 124.594 28.7812 126.026 29.312C125.172 29.2008 123.51 29.4637 123.25 29.5547C122.99 29.6457 122.573 29.8378 122.542 30.0047C122.516 30.1715 122.932 30.6922 123.089 30.8388C123.245 30.9854 124.01 31.6123 124.01 31.6123C124.01 31.6123 123.536 31.7387 123.224 31.8398C122.911 31.9409 122.943 32.2341 123.151 32.492C123.391 32.7953 124.156 33.6042 124.156 33.6042C124.156 33.6042 123.74 33.771 123.63 33.8165C122.396 34.312 125.641 36.0107 125.474 36.314C125.26 36.6932 125.26 37.8054 126.286 40.1158C127.312 42.4261 129.089 45.1713 131.917 47.5727C131.917 47.5727 132.036 47.7193 132.25 47.6586C132.458 47.603 132.734 47.603 132.703 48.0985C132.672 48.5939 133.156 49.5292 134.24 49.8831C134.302 49.9033 134.37 49.9235 134.437 49.9387C134.448 49.9488 134.464 49.9589 134.479 49.9589C134.552 49.9791 134.599 49.9842 134.651 49.969C135.672 50.0904 136.854 49.6505 137.042 50.0853C137.255 50.5808 136.802 51.1369 137.583 51.1975C138.37 51.2582 139.63 50.7577 139.63 50.7577C139.63 50.7577 139.932 50.7274 139.781 51.0509C139.63 51.3745 139.724 52.1025 140.745 51.9003C141.526 51.7435 142.286 51.0307 143.005 50.788C143.453 50.7981 144.146 50.8234 144.073 50.8892C143.521 51.3745 137.849 53.4371 136.88 53.6293C136.026 53.8012 133.573 53.6798 132.849 53.609C132.125 53.5383 130.229 53.2703 129.865 53.1945C129.5 53.1136 129.516 53.2703 129.547 53.3259C129.578 53.3866 129.729 53.4978 130 53.5939C130.271 53.695 131.333 53.9326 131.333 53.9326C131.333 53.9326 130.932 53.973 130.615 54.0084C130.297 54.0438 129.979 54.0286 129.714 54.064C129.448 54.0994 128.464 54.3269 128.286 54.2915C128.115 54.2561 128.036 54.3269 128.172 54.4381C128.281 54.5241 128.818 54.6909 129.016 54.7465C128.901 54.7566 128.797 54.7668 128.698 54.7769C127.974 54.8426 127.25 54.8881 127.036 54.8679C126.828 54.8476 126.776 54.9791 126.896 55.1661C127.005 55.333 127.693 55.4644 127.943 55.4998C127.802 55.5403 127.594 55.6009 127.406 55.6515C127.099 55.7122 126.755 55.7728 126.557 55.8234C126.115 55.9396 126.521 56.1419 127.292 56.1217C128.062 56.1014 128.109 56.1924 127.948 56.2379C127.781 56.2834 126.896 56.6474 126.682 56.6929C126.469 56.7384 126.568 56.9204 128.203 56.8951C129.844 56.8699 132.839 56.3491 134.505 56.1014C134.714 56.0711 134.906 56.0458 135.094 56.0357C135.094 56.0408 135.094 56.0408 135.099 56.0408C135.104 56.0408 135.109 56.0357 135.115 56.0357C135.792 55.9851 136.307 56.0408 136.651 56.1014C136.797 56.1469 136.937 56.2076 137.062 56.2935C137.307 56.4604 135.995 56.6626 135.87 56.6828C135.745 56.703 136.036 56.9457 136.687 57.1681C137.339 57.3906 138.615 57.249 139.385 57.1681C140.161 57.0873 139.974 57.1884 139.911 57.2086C139.849 57.2288 138.698 57.7394 138.531 57.8608C138.365 57.9821 138.469 58.0225 139.932 58.0023C141.396 57.9821 143.177 57.6181 143.557 57.5726C143.932 57.5321 144 57.5119 143.807 57.9366C143.62 58.3613 143.01 59.4583 142.76 59.888C142.51 60.3178 143.828 60.1509 144.036 60.1307C144.245 60.1105 143.427 60.7424 143.24 61.0458C143.052 61.3491 143.177 61.3086 143.953 61.0458C144.521 60.8536 145.661 60.2723 146.234 59.9689C146.234 59.974 146.234 59.974 146.229 59.979C146.255 59.9639 146.281 59.9487 146.307 59.9285C146.401 59.8779 146.474 59.8375 146.526 59.8122C146.521 59.8981 146.5 60.3582 146.568 60.6615C146.604 60.8233 146.75 61.071 146.891 61.3036C146.906 61.3238 146.922 61.3491 146.937 61.3693C147.042 61.526 147.141 61.6726 147.198 61.7535C147.203 61.7535 147.208 61.7485 147.214 61.7485C147.609 62.254 148.115 62.8152 148.245 62.982C148.432 63.2348 148.406 63.073 148.349 62.7899C148.292 62.5068 148.38 62.2186 148.714 62.6635C149.125 63.2095 149.682 63.6645 150.026 63.9274C150.365 64.1903 150.542 64.1094 150.505 63.8718C150.469 63.6342 150.589 63.4522 150.807 63.8162C151.031 64.1802 151.547 64.5998 151.708 64.7009C151.87 64.802 151.776 64.2257 151.823 64.0184C151.844 63.9375 151.875 63.8617 151.906 63.796C152.214 64.1853 152.964 64.9133 153.062 64.5695C153.146 64.2813 153.286 64.0083 153.375 63.8516C153.375 63.8567 153.375 63.8617 153.375 63.8668C153.427 63.7758 153.464 63.7201 153.464 63.7201C153.464 63.7201 153.562 63.6848 153.646 63.7303C153.656 63.7353 153.677 63.7404 153.698 63.7555C153.896 63.8566 154.224 64.0285 154.495 64.2206C154.76 64.4077 154.828 64.6706 154.844 64.888C154.854 65.0194 154.844 65.1357 154.849 65.2065C154.849 65.2267 154.859 65.2621 154.87 65.2975C154.865 65.3025 154.859 65.3025 154.854 65.3076L154.87 65.2975C155.807 64.8829 156.396 65.0194 156.745 65.2419C156.943 65.3329 157.078 65.5048 157.161 65.6868C157.167 65.7019 157.172 65.707 157.177 65.712C157.281 65.9345 157.307 66.167 157.302 66.2833C157.385 66.1721 158.042 65.2469 157.234 64.5594C157.474 64.4279 157.693 64.4734 157.943 65.0144C158.219 65.616 157.979 65.9345 157.979 65.9345C157.979 65.9345 158.651 65.7727 158.589 64.7717C158.589 64.7717 158.547 64.0437 157.552 63.8061C155.922 63.4219 155.323 63.1539 154.75 62.9365C154.703 62.9163 154.656 62.891 154.609 62.8759C154.411 62.8051 154.281 62.7444 154.182 62.6989C154.172 62.6635 154.125 62.5675 153.896 62.3501C153.583 62.0569 153.443 61.8041 153.339 61.6069C153.333 61.5968 153.328 61.5766 153.323 61.5665C153.266 61.4906 153.214 61.4199 153.151 61.3339C152.88 60.9649 152.797 60.3885 152.802 59.7819C152.792 59.706 152.781 59.6251 152.781 59.5392C152.781 58.8719 153.062 57.3603 153.349 56.0761C153.51 55.9346 153.547 56.0509 153.292 57.4159C153.161 58.1034 153.187 58.7859 153.245 59.2915C153.255 59.7718 153.318 60.0245 153.349 60.1358C153.38 60.2015 153.417 60.2571 153.458 60.2925C153.766 60.5908 155.365 61.6878 155.625 61.7586C155.885 61.8243 155.901 61.6423 155.922 61.5614C155.937 61.5058 156.068 61.6019 156.224 61.7586C156.219 61.7586 156.219 61.7636 156.214 61.7636C156.281 61.8344 156.354 61.9103 156.427 61.9962C156.661 62.2692 157.255 62.3855 157.359 62.4108C157.385 62.4158 157.411 62.3905 157.432 62.345C157.495 62.2288 157.542 61.9558 157.599 61.8546C157.667 61.7333 157.745 61.9052 157.927 62.0215C158.094 62.1226 158.198 62.072 158.286 61.9507C158.297 61.9355 158.307 61.9204 158.318 61.9052C158.385 61.8041 158.604 61.7333 158.734 61.6979C158.88 61.612 159.406 61.6373 159.568 61.6676C159.583 61.6726 159.589 61.6777 159.599 61.6828H159.604C159.604 61.6828 159.615 61.6828 159.63 61.6929C159.714 61.7232 159.984 61.9962 159.979 62.34L159.984 62.3349C159.984 62.34 159.984 62.345 159.984 62.3501L160.271 62.1883C160.625 62.0316 161.198 61.8597 161.786 62.0164C161.953 62.067 161.948 62.2338 161.932 62.4512C161.932 62.4512 161.875 62.8101 161.661 62.977C161.661 62.977 162.344 62.7748 162.552 62.2591C162.672 62.3097 162.87 62.6484 162.453 63.0377C162.453 63.0377 163.677 63.073 163.255 62.0265C163.182 61.4907 162.802 61.1721 162.385 60.9952L162.406 60.9851C161.979 60.8031 161.516 60.7677 161.302 60.793C161.161 60.8233 161.052 60.8435 161.016 60.8486C160.88 60.8587 159.328 60.5604 159.167 60.5099C159 60.4593 158.766 60.3885 158.49 60.1307C158.214 59.8729 157.443 58.5129 157.349 58.154C157.255 57.8001 156.547 56.4098 156.359 56.0307C156.177 55.6464 155.13 54.3926 154.901 54.0691C154.885 54.0438 154.859 54.0185 154.844 53.9933C154.625 53.6444 154.318 53.2602 154.224 53.1439C154.292 52.9973 154.333 52.9215 154.339 52.9114C154.479 52.6333 155.016 51.9104 155.286 51.4705C155.552 51.0307 155.708 50.6819 155.839 50.5252C155.839 50.5252 156.276 49.3068 157.297 49.1399C157.297 49.1399 157.51 49.0388 157.964 49.1804C158.932 49.4786 159.724 49.9791 159.724 49.9791C159.724 49.9791 160.016 50.1157 160.172 50.2319C160.323 50.3482 160.729 50.5201 160.875 50.6566C161.021 50.7931 161.776 52.1227 161.797 52.1985C161.823 52.2744 161.922 52.3856 161.844 52.5221C161.797 52.603 161.651 52.785 161.547 52.8254C161.437 52.8608 161.599 52.8861 161.75 52.8608C161.901 52.8406 162.167 52.6839 162.656 52.3654C163.141 52.0469 163.135 51.0863 163.057 50.6667C163.016 50.419 162.807 49.7971 162.812 49.6354C162.818 49.4736 163.286 49.2461 162.964 48.1693C162.615 47.0065 161.266 45.8639 160.557 45.2118C159.87 44.5798 158.839 43.8923 158.604 43.7305C158.37 43.5637 158.302 43.5434 158.26 43.4625L158.521 43.4069C158.484 43.4019 158.443 43.4019 158.401 43.3968C158.464 43.2805 158.693 42.9924 158.974 42.6688C159.703 42.0318 160.87 41.1774 162.292 40.6466C164.625 39.777 163.229 38.4828 165.115 37.2897C165.771 36.9358 166.469 36.5617 166.724 36.4252C167.234 36.1522 170.135 34.6052 170.568 34.4586C171 34.312 171.203 34.1856 170.578 34.135C169.953 34.0895 168.245 34.6204 167.568 34.9642C166.885 35.3079 165.896 35.9652 165.896 35.9652C165.896 35.9652 165.76 35.9146 165.719 35.864C165.677 35.8135 165.76 35.6871 165.911 35.5203C166.062 35.3534 167.885 33.8014 168.573 33.3059C169.255 32.8105 171.135 31.3292 171.526 31.041C171.901 30.7225 171.292 30.6417 170.375 30.8793Z" fill="white"/>
</g>
<defs>
<clipPath id="clip0_153_524">
<rect width="300" height="91" fill="white"/>
</clipPath>
</defs>
</svg>
